<svg width="193" height="73" viewBox="0 0 193 73" fill="none" xmlns="http://www.w3.org/2000/svg">
<path d="M65.28 3.6C66.9333 3.92 68.16 4.48 68.96 5.28C69.8133 6.08 70.24 7.01333 70.24 8.08C70.24 9.84 69.7333 11.12 68.72 11.92C67.76 12.72 66.2133 13.04 64.08 12.88C59.28 12.5067 55.52 12.2667 52.8 12.16C50.1333 12 46.6133 11.8933 42.24 11.84C40.2667 21.6533 38.4533 31.52 36.8 41.44C36.2133 45.0667 35.6 49.28 34.96 54.08C34.32 58.8267 33.8933 62.6667 33.68 65.6C33.5733 67.1467 32.9333 68.3467 31.76 69.2C30.5867 70 29.1733 70.4 27.52 70.4C25.76 70.4 24.4 69.9733 23.44 69.12C22.48 68.2667 22 67.1467 22 65.76C22 64.48 22.1867 62.3733 22.56 59.44C22.9867 56.4533 23.4667 53.3333 24 50.08C24.5867 46.8267 25.04 44 25.36 41.6C25.9467 37.5467 26.6133 33.52 27.36 29.52C28.1067 25.52 28.8533 21.7333 29.6 18.16C29.76 17.36 29.9467 16.4533 30.16 15.44C30.3733 14.3733 30.6133 13.2 30.88 11.92C25.6533 12.08 21.5467 12.5067 18.56 13.2C15.5733 13.8933 13.44 14.88 12.16 16.16C10.9333 17.3867 10.32 18.9867 10.32 20.96C10.32 22.7733 10.8533 24.5067 11.92 26.16C12.1333 26.5333 12.24 26.9333 12.24 27.36C12.24 28.3733 11.6267 29.3333 10.4 30.24C9.22667 31.0933 8 31.52 6.72 31.52C5.81333 31.52 5.06667 31.2533 4.48 30.72C3.41333 29.8133 2.53333 28.5333 1.84 26.88C1.14667 25.1733 0.8 23.2533 0.8 21.12C0.8 16.5867 2.26667 12.96 5.2 10.24C8.18667 7.46666 12.6933 5.44 18.72 4.16C24.8 2.88 32.5867 2.24 42.08 2.24C47.9467 2.24 52.6133 2.34666 56.08 2.56C59.6 2.77333 62.6667 3.12 65.28 3.6ZM110.114 45.68C110.274 45.6267 110.54 45.6 110.914 45.6C111.714 45.6 112.327 45.8667 112.754 46.4C113.18 46.9333 113.394 47.6533 113.394 48.56C113.394 50.2133 113.074 51.52 112.434 52.48C111.794 53.3867 110.834 54.0533 109.554 54.48C107.1 55.28 104.487 55.68 101.714 55.68C99.3671 55.68 97.1538 55.36 95.0738 54.72C93.5271 57.2267 91.8204 59.8133 89.9538 62.48C87.8204 65.52 85.9804 67.6 84.4338 68.72C82.9404 69.84 81.2338 70.4 79.3138 70.4C77.1804 70.4 75.5538 69.5733 74.4338 67.92C73.3671 66.2667 72.7004 63.5467 72.4338 59.76L72.0338 53.92C70.3804 58.4 68.8871 61.8133 67.5538 64.16C66.2738 66.5067 64.9671 68.1333 63.6338 69.04C62.3538 69.9467 60.8338 70.4 59.0738 70.4C56.8871 70.4 55.1538 69.5467 53.8738 67.84C52.6471 66.1333 51.8738 63.44 51.5538 59.76C50.9138 52.2933 50.5938 45.76 50.5938 40.16V37.36C50.6471 35.6 51.1271 34.3733 52.0338 33.68C52.9404 32.9867 54.3004 32.64 56.1138 32.64C57.5004 32.64 58.5138 32.96 59.1538 33.6C59.8471 34.1867 60.1938 35.2 60.1938 36.64C60.1938 42.7733 60.5671 50.7467 61.3138 60.56C64.9404 52.9333 68.2738 44.9867 71.3138 36.72C71.9004 35.12 72.5938 34.0533 73.3938 33.52C74.2471 32.9333 75.2604 32.64 76.4338 32.64C77.8738 32.64 78.8604 32.9333 79.3938 33.52C79.9804 34.1067 80.2738 35.1467 80.2738 36.64C80.2738 42.7733 80.6471 50.7467 81.3938 60.56C84.5938 55.8133 86.9938 52.0267 88.5938 49.2C87.7938 47.6533 87.3938 45.8133 87.3938 43.68C87.3938 41.8667 87.7938 40.1067 88.5938 38.4C89.3938 36.6933 90.4871 35.3067 91.8738 34.24C93.2604 33.1733 94.8338 32.64 96.5938 32.64C98.1404 32.64 99.3938 33.2 100.354 34.32C101.314 35.3867 101.794 36.96 101.794 39.04C101.794 41.44 101.154 44.1867 99.8738 47.28C101.9 47.1733 104.594 46.7733 107.954 46.08L110.114 45.68ZM116.929 27.44C114.689 27.44 113.009 26.9333 111.889 25.92C110.769 24.8533 110.209 23.3867 110.209 21.52C110.209 19.6533 110.929 18.1067 112.369 16.88C113.863 15.6 115.703 14.96 117.889 14.96C119.863 14.96 121.463 15.44 122.689 16.4C123.916 17.36 124.529 18.72 124.529 20.48C124.529 22.6133 123.836 24.32 122.449 25.6C121.063 26.8267 119.223 27.44 116.929 27.44ZM116.289 70.4C112.823 70.4 110.289 69.1733 108.689 66.72C107.143 64.2667 106.369 61.0133 106.369 56.96C106.369 54.56 106.663 51.4933 107.249 47.76C107.889 43.9733 108.689 40.4533 109.649 37.2C110.129 35.4933 110.769 34.32 111.569 33.68C112.369 33.04 113.649 32.72 115.409 32.72C118.129 32.72 119.489 33.6267 119.489 35.44C119.489 36.7733 118.983 39.8667 117.969 44.72C116.689 50.5867 116.049 54.56 116.049 56.64C116.049 58.24 116.263 59.4667 116.689 60.32C117.116 61.1733 117.836 61.6 118.849 61.6C119.809 61.6 121.009 60.9333 122.449 59.6C123.889 58.2667 125.809 56.16 128.209 53.28C128.849 52.5333 129.569 52.16 130.369 52.16C131.063 52.16 131.596 52.48 131.969 53.12C132.396 53.76 132.609 54.64 132.609 55.76C132.609 57.8933 132.103 59.5467 131.089 60.72C125.809 67.1733 120.876 70.4 116.289 70.4ZM141.017 72.16C138.244 72.16 136.11 71.52 134.617 70.24C133.177 68.96 132.457 67.52 132.457 65.92C132.457 64.5333 132.964 63.3333 133.977 62.32C134.99 61.3067 136.484 60.8 138.457 60.8C139.15 60.8 139.95 60.88 140.857 61.04C141.817 61.1467 142.537 61.2267 143.017 61.28C142.964 59.8933 142.644 58.5867 142.057 57.36C141.524 56.1333 140.83 54.96 139.977 53.84C139.124 52.6667 138.324 51.6533 137.577 50.8C135.924 53.9467 134.27 56.56 132.617 58.64C131.017 60.72 129.257 62.6933 127.337 64.56C126.377 65.52 125.364 66 124.297 66C123.444 66 122.75 65.7067 122.217 65.12C121.684 64.48 121.417 63.7067 121.417 62.8C121.417 61.7333 121.79 60.7467 122.537 59.84L123.577 58.56C126.51 54.9333 128.724 51.9467 130.217 49.6C131.124 48.0533 132.19 46 133.417 43.44C134.644 40.8267 135.844 38.1333 137.017 35.36C138.03 33.0133 140.137 31.84 143.337 31.84C144.83 31.84 145.87 31.9733 146.457 32.24C147.044 32.5067 147.337 32.9333 147.337 33.52C147.337 33.84 147.23 34.3467 147.017 35.04C146.804 35.7333 146.51 36.4267 146.137 37.12C145.177 39.04 144.697 40.6667 144.697 42C144.697 42.8 144.964 43.68 145.497 44.64C146.084 45.6 146.964 46.8 148.137 48.24C149.844 50.48 151.124 52.4 151.977 54C152.884 55.5467 153.337 57.2533 153.337 59.12C153.337 59.6533 153.284 60.4 153.177 61.36C155.79 60.3467 158.857 57.6533 162.377 53.28C163.017 52.5333 163.737 52.16 164.537 52.16C165.23 52.16 165.764 52.48 166.137 53.12C166.564 53.76 166.777 54.64 166.777 55.76C166.777 57.7867 166.27 59.44 165.257 60.72C162.59 64.0267 160.03 66.2933 157.577 67.52C155.177 68.6933 152.19 69.3333 148.617 69.44C146.484 71.2533 143.95 72.16 141.017 72.16ZM173.478 40.32C173.371 42.9867 173.318 45.0667 173.318 46.56C173.318 50.4 173.504 53.4133 173.878 55.6C174.304 57.7333 174.971 59.28 175.878 60.24C176.838 61.1467 178.144 61.6 179.798 61.6C180.651 61.6 181.664 61.3333 182.838 60.8C184.011 60.2667 185.078 59.5733 186.038 58.72C186.624 58.1867 187.211 57.92 187.798 57.92C188.438 57.92 188.944 58.2933 189.318 59.04C189.744 59.7333 189.958 60.5867 189.958 61.6C189.958 62.6133 189.744 63.6 189.318 64.56C188.944 65.52 188.358 66.32 187.558 66.96C184.784 69.2533 181.638 70.4 178.118 70.4C173.051 70.4 169.344 68.2933 166.997 64.08C164.651 59.8133 163.478 54.2667 163.478 47.44C163.478 45.0933 163.558 42.72 163.718 40.32H160.598C158.998 40.32 157.904 40.0267 157.318 39.44C156.784 38.8533 156.518 37.92 156.518 36.64C156.518 33.6533 157.718 32.16 160.118 32.16H164.678C165.584 26.2933 166.971 20.9333 168.838 16.08C170.704 11.2267 172.944 7.36 175.558 4.47999C178.224 1.6 181.078 0.159998 184.118 0.159998C186.358 0.159998 188.118 1.14666 189.398 3.12C190.678 5.09333 191.318 7.57333 191.318 10.56C191.318 18.8267 187.851 26.0267 180.918 32.16H189.878C190.731 32.16 191.344 32.3467 191.718 32.72C192.091 33.0933 192.278 33.7867 192.278 34.8C192.278 38.48 189.264 40.32 183.238 40.32H173.478ZM181.958 7.84C181.158 7.84 180.251 8.85333 179.238 10.88C178.278 12.8533 177.344 15.6267 176.438 19.2C175.584 22.72 174.864 26.64 174.278 30.96C177.424 28.24 179.771 25.2 181.318 21.84C182.918 18.4267 183.718 15.3333 183.718 12.56C183.718 9.41333 183.131 7.84 181.958 7.84Z" fill="#888888" fill-opacity="0.145098"/>
</svg>
