<svg width="238" height="44" viewBox="0 0 238 44" fill="none" xmlns="http://www.w3.org/2000/svg">
<path d="M39.368 2.16C40.36 2.352 41.096 2.688 41.576 3.168C42.088 3.648 42.344 4.208 42.344 4.848C42.344 5.904 42.04 6.672 41.432 7.152C40.856 7.632 39.928 7.824 38.648 7.728C35.768 7.504 33.512 7.36 31.88 7.296C30.28 7.2 28.168 7.136 25.544 7.104C24.36 12.992 23.272 18.912 22.28 24.864C21.928 27.04 21.56 29.568 21.176 32.448C20.792 35.296 20.536 37.6 20.408 39.36C20.344 40.288 19.96 41.008 19.256 41.52C18.552 42 17.704 42.24 16.712 42.24C15.656 42.24 14.84 41.984 14.264 41.472C13.688 40.96 13.4 40.288 13.4 39.456C13.4 38.688 13.512 37.424 13.736 35.664C13.992 33.872 14.28 32 14.6 30.048C14.952 28.096 15.224 26.4 15.416 24.96C15.768 22.528 16.168 20.112 16.616 17.712C17.064 15.312 17.512 13.04 17.96 10.896C18.056 10.416 18.168 9.872 18.296 9.264C18.424 8.624 18.568 7.92 18.728 7.152C15.592 7.248 13.128 7.504 11.336 7.92C9.544 8.336 8.264 8.928 7.496 9.696C6.76 10.432 6.392 11.392 6.392 12.576C6.392 13.664 6.712 14.704 7.352 15.696C7.48 15.92 7.544 16.16 7.544 16.416C7.544 17.024 7.176 17.6 6.44 18.144C5.736 18.656 5 18.912 4.232 18.912C3.688 18.912 3.24 18.752 2.888 18.432C2.248 17.888 1.72 17.12 1.304 16.128C0.888 15.104 0.68 13.952 0.68 12.672C0.68 9.952 1.56 7.776 3.32 6.144C5.112 4.48 7.816 3.264 11.432 2.496C15.08 1.728 19.752 1.344 25.448 1.344C28.968 1.344 31.768 1.408 33.848 1.536C35.96 1.664 37.8 1.872 39.368 2.16ZM66.2683 27.408C66.3643 27.376 66.5243 27.36 66.7483 27.36C67.2283 27.36 67.5963 27.52 67.8523 27.84C68.1083 28.16 68.2363 28.592 68.2363 29.136C68.2363 30.128 68.0443 30.912 67.6603 31.488C67.2763 32.032 66.7003 32.432 65.9323 32.688C64.4603 33.168 62.8923 33.408 61.2283 33.408C59.8203 33.408 58.4923 33.216 57.2443 32.832C56.3163 34.336 55.2923 35.888 54.1723 37.488C52.8923 39.312 51.7883 40.56 50.8603 41.232C49.9643 41.904 48.9403 42.24 47.7883 42.24C46.5083 42.24 45.5323 41.744 44.8603 40.752C44.2203 39.76 43.8203 38.128 43.6603 35.856L43.4203 32.352C42.4283 35.04 41.5323 37.088 40.7323 38.496C39.9643 39.904 39.1803 40.88 38.3803 41.424C37.6123 41.968 36.7003 42.24 35.6443 42.24C34.3323 42.24 33.2923 41.728 32.5243 40.704C31.7883 39.68 31.3243 38.064 31.1323 35.856C30.7483 31.376 30.5563 27.456 30.5563 24.096V22.416C30.5883 21.36 30.8763 20.624 31.4203 20.208C31.9643 19.792 32.7803 19.584 33.8683 19.584C34.7003 19.584 35.3083 19.776 35.6923 20.16C36.1083 20.512 36.3163 21.12 36.3163 21.984C36.3163 25.664 36.5403 30.448 36.9883 36.336C39.1643 31.76 41.1643 26.992 42.9883 22.032C43.3403 21.072 43.7563 20.432 44.2363 20.112C44.7483 19.76 45.3563 19.584 46.0603 19.584C46.9243 19.584 47.5163 19.76 47.8363 20.112C48.1883 20.464 48.3643 21.088 48.3643 21.984C48.3643 25.664 48.5883 30.448 49.0363 36.336C50.9563 33.488 52.3963 31.216 53.3563 29.52C52.8763 28.592 52.6363 27.488 52.6363 26.208C52.6363 25.12 52.8763 24.064 53.3563 23.04C53.8363 22.016 54.4923 21.184 55.3243 20.544C56.1563 19.904 57.1003 19.584 58.1562 19.584C59.0843 19.584 59.8363 19.92 60.4123 20.592C60.9883 21.232 61.2763 22.176 61.2763 23.424C61.2763 24.864 60.8923 26.512 60.1243 28.368C61.3403 28.304 62.9563 28.064 64.9723 27.648L66.2683 27.408ZM70.3576 16.464C69.0136 16.464 68.0056 16.16 67.3336 15.552C66.6616 14.912 66.3256 14.032 66.3256 12.912C66.3256 11.792 66.7576 10.864 67.6216 10.128C68.5176 9.36 69.6216 8.976 70.9336 8.976C72.1176 8.976 73.0776 9.264 73.8136 9.84C74.5496 10.416 74.9176 11.232 74.9176 12.288C74.9176 13.568 74.5016 14.592 73.6696 15.36C72.8376 16.096 71.7336 16.464 70.3576 16.464ZM69.9736 42.24C67.8936 42.24 66.3736 41.504 65.4136 40.032C64.4856 38.56 64.0216 36.608 64.0216 34.176C64.0216 32.736 64.1976 30.896 64.5496 28.656C64.9336 26.384 65.4136 24.272 65.9896 22.32C66.2776 21.296 66.6616 20.592 67.1416 20.208C67.6216 19.824 68.3896 19.632 69.4456 19.632C71.0776 19.632 71.8936 20.176 71.8936 21.264C71.8936 22.064 71.5896 23.92 70.9816 26.832C70.2136 30.352 69.8296 32.736 69.8296 33.984C69.8296 34.944 69.9576 35.68 70.2136 36.192C70.4696 36.704 70.9016 36.96 71.5096 36.96C72.0856 36.96 72.8056 36.56 73.6696 35.76C74.5336 34.96 75.6856 33.696 77.1256 31.968C77.5096 31.52 77.9416 31.296 78.4216 31.296C78.8376 31.296 79.1576 31.488 79.3816 31.872C79.6376 32.256 79.7656 32.784 79.7656 33.456C79.7656 34.736 79.4616 35.728 78.8536 36.432C75.6856 40.304 72.7256 42.24 69.9736 42.24ZM84.8101 43.296C83.1461 43.296 81.8661 42.912 80.9701 42.144C80.1061 41.376 79.6741 40.512 79.6741 39.552C79.6741 38.72 79.9781 38 80.5861 37.392C81.1941 36.784 82.0901 36.48 83.2741 36.48C83.6901 36.48 84.1701 36.528 84.7141 36.624C85.2901 36.688 85.7221 36.736 86.0101 36.768C85.9781 35.936 85.7861 35.152 85.4341 34.416C85.1141 33.68 84.6981 32.976 84.1861 32.304C83.6741 31.6 83.1941 30.992 82.7461 30.48C81.7541 32.368 80.7621 33.936 79.7701 35.184C78.8101 36.432 77.7541 37.616 76.6021 38.736C76.0261 39.312 75.4181 39.6 74.7781 39.6C74.2661 39.6 73.8501 39.424 73.5301 39.072C73.2101 38.688 73.0501 38.224 73.0501 37.68C73.0501 37.04 73.2741 36.448 73.7221 35.904L74.3461 35.136C76.1061 32.96 77.4341 31.168 78.3301 29.76C78.8741 28.832 79.5141 27.6 80.2501 26.064C80.9861 24.496 81.7061 22.88 82.4101 21.216C83.0181 19.808 84.2821 19.104 86.2021 19.104C87.0981 19.104 87.7221 19.184 88.0741 19.344C88.4261 19.504 88.6021 19.76 88.6021 20.112C88.6021 20.304 88.5381 20.608 88.4101 21.024C88.2821 21.44 88.1061 21.856 87.8821 22.272C87.3061 23.424 87.0181 24.4 87.0181 25.2C87.0181 25.68 87.1781 26.208 87.4981 26.784C87.8501 27.36 88.3781 28.08 89.0821 28.944C90.1061 30.288 90.8741 31.44 91.3861 32.4C91.9301 33.328 92.2021 34.352 92.2021 35.472C92.2021 35.792 92.1701 36.24 92.1061 36.816C93.6741 36.208 95.5141 34.592 97.6261 31.968C98.0101 31.52 98.4421 31.296 98.9221 31.296C99.3381 31.296 99.6581 31.488 99.8821 31.872C100.138 32.256 100.266 32.784 100.266 33.456C100.266 34.672 99.9621 35.664 99.3541 36.432C97.7541 38.416 96.2181 39.776 94.7461 40.512C93.3061 41.216 91.5141 41.6 89.3701 41.664C88.0901 42.752 86.5701 43.296 84.8101 43.296ZM104.287 24.192C104.223 25.792 104.191 27.04 104.191 27.936C104.191 30.24 104.303 32.048 104.527 33.36C104.783 34.64 105.183 35.568 105.727 36.144C106.303 36.688 107.087 36.96 108.079 36.96C108.591 36.96 109.199 36.8 109.903 36.48C110.607 36.16 111.247 35.744 111.823 35.232C112.175 34.912 112.527 34.752 112.879 34.752C113.263 34.752 113.567 34.976 113.791 35.424C114.047 35.84 114.175 36.352 114.175 36.96C114.175 37.568 114.047 38.16 113.791 38.736C113.567 39.312 113.215 39.792 112.735 40.176C111.071 41.552 109.183 42.24 107.071 42.24C104.031 42.24 101.807 40.976 100.398 38.448C98.9905 35.888 98.2865 32.56 98.2865 28.464C98.2865 27.056 98.3345 25.632 98.4305 24.192H96.5585C95.5985 24.192 94.9425 24.016 94.5905 23.664C94.2705 23.312 94.1105 22.752 94.1105 21.984C94.1105 20.192 94.8305 19.296 96.2705 19.296H99.0065C99.5505 15.776 100.383 12.56 101.503 9.648C102.623 6.736 103.967 4.416 105.535 2.688C107.135 0.959998 108.847 0.0959988 110.671 0.0959988C112.015 0.0959988 113.071 0.687999 113.839 1.872C114.607 3.056 114.991 4.544 114.991 6.336C114.991 11.296 112.911 15.616 108.751 19.296H114.127C114.639 19.296 115.007 19.408 115.231 19.632C115.455 19.856 115.567 20.272 115.567 20.88C115.567 23.088 113.759 24.192 110.143 24.192H104.287ZM109.375 4.704C108.895 4.704 108.351 5.312 107.743 6.528C107.167 7.712 106.607 9.376 106.062 11.52C105.551 13.632 105.119 15.984 104.767 18.576C106.655 16.944 108.063 15.12 108.991 13.104C109.951 11.056 110.431 9.2 110.431 7.536C110.431 5.648 110.079 4.704 109.375 4.704ZM119.171 30.192C118.403 30.256 117.779 30.032 117.299 29.52C116.851 29.008 116.627 28.288 116.627 27.36C116.627 26.496 116.835 25.856 117.251 25.44C117.699 25.024 118.339 24.784 119.171 24.72L129.011 23.76C129.811 23.696 130.419 23.904 130.835 24.384C131.283 24.832 131.507 25.504 131.507 26.4C131.507 28.128 130.675 29.072 129.011 29.232L119.171 30.192ZM155.509 1.584C156.341 1.584 157.045 1.792 157.621 2.208C158.197 2.592 158.485 3.072 158.485 3.648C158.485 4.672 158.165 5.504 157.525 6.144C156.885 6.752 155.973 7.056 154.789 7.056C152.933 7.056 151.525 7.072 150.565 7.104C150.501 7.488 150.213 9.216 149.701 12.288C149.125 15.712 148.773 17.808 148.645 18.576L147.637 24.864C146.933 29.568 146.373 33.504 145.957 36.672C146.629 36.64 147.541 36.624 148.693 36.624C150.389 36.624 151.541 36.848 152.149 37.296C152.757 37.744 153.061 38.416 153.061 39.312C153.061 40.144 152.725 40.848 152.053 41.424C151.413 42 150.501 42.288 149.317 42.288C148.517 42.288 147.253 42.256 145.525 42.192C143.925 42.128 142.869 42.096 142.357 42.096C140.341 42.096 138.133 42.272 135.733 42.624C134.677 42.784 133.925 42.864 133.477 42.864C132.773 42.864 132.181 42.672 131.701 42.288C131.221 41.904 130.981 41.344 130.981 40.608C130.981 39.456 131.493 38.56 132.517 37.92C133.541 37.28 134.981 36.944 136.837 36.912L139.093 36.864L139.237 35.808C140.005 30.688 140.565 27.072 140.917 24.96L141.973 18.672C142.613 14.96 143.189 11.136 143.701 7.2L139.669 7.248C138.517 7.248 137.717 7.072 137.269 6.72C136.853 6.336 136.645 5.808 136.645 5.136C136.645 2.96 138.213 1.792 141.349 1.632C142.821 1.568 144.613 1.536 146.725 1.536L155.509 1.584ZM167.035 42.24C163.899 42.24 161.451 41.36 159.691 39.6C157.963 37.808 157.099 35.456 157.099 32.544C157.099 29.952 157.611 27.68 158.635 25.728C159.659 23.776 160.987 22.272 162.618 21.216C164.251 20.16 165.963 19.632 167.755 19.632C169.515 19.632 170.875 20.16 171.835 21.216C172.827 22.24 173.323 23.568 173.323 25.2C173.323 26.544 173.019 27.68 172.411 28.608C171.835 29.536 171.067 30 170.107 30C169.499 30 169.003 29.856 168.619 29.568C168.267 29.28 168.091 28.88 168.091 28.368C168.091 28.144 168.123 27.888 168.187 27.6C168.251 27.312 168.299 27.104 168.331 26.976C168.491 26.496 168.571 26.048 168.571 25.632C168.571 25.216 168.459 24.896 168.234 24.672C168.043 24.448 167.755 24.336 167.371 24.336C166.635 24.336 165.947 24.672 165.307 25.344C164.667 25.984 164.155 26.864 163.771 27.984C163.387 29.104 163.195 30.336 163.195 31.68C163.195 35.392 164.811 37.248 168.043 37.248C169.355 37.248 170.763 36.816 172.267 35.952C173.803 35.056 175.307 33.728 176.779 31.968C177.163 31.52 177.595 31.296 178.075 31.296C178.491 31.296 178.811 31.488 179.035 31.872C179.291 32.256 179.419 32.784 179.419 33.456C179.419 34.672 179.115 35.664 178.507 36.432C177.003 38.288 175.195 39.728 173.083 40.752C171.003 41.744 168.987 42.24 167.035 42.24ZM200.018 27.264C200.434 27.264 200.754 27.472 200.978 27.888C201.202 28.304 201.314 28.832 201.314 29.472C201.314 31.008 200.85 31.92 199.922 32.208C198.002 32.88 195.89 33.264 193.586 33.36C192.978 36.048 191.778 38.208 189.986 39.84C188.194 41.44 186.162 42.24 183.89 42.24C181.97 42.24 180.322 41.776 178.946 40.848C177.602 39.92 176.578 38.688 175.874 37.152C175.17 35.616 174.818 33.952 174.818 32.16C174.818 29.728 175.282 27.568 176.21 25.68C177.138 23.76 178.418 22.272 180.05 21.216C181.682 20.128 183.49 19.584 185.474 19.584C187.906 19.584 189.858 20.432 191.33 22.128C192.834 23.792 193.714 25.856 193.97 28.32C195.474 28.224 197.266 27.904 199.346 27.36C199.602 27.296 199.826 27.264 200.018 27.264ZM184.274 37.152C185.298 37.152 186.178 36.736 186.914 35.904C187.682 35.072 188.194 33.872 188.45 32.304C187.458 31.632 186.69 30.752 186.146 29.664C185.634 28.576 185.378 27.424 185.378 26.208C185.378 25.696 185.426 25.184 185.522 24.672H185.282C184.002 24.672 182.93 25.296 182.066 26.544C181.234 27.76 180.818 29.488 180.818 31.728C180.818 33.488 181.154 34.832 181.826 35.76C182.53 36.688 183.346 37.152 184.274 37.152ZM200.603 42.24C199.387 42.24 198.523 41.6 198.011 40.32C197.531 39.04 197.291 36.992 197.291 34.176C197.291 30.016 197.883 26.064 199.067 22.32C199.355 21.392 199.819 20.72 200.459 20.304C201.131 19.856 202.059 19.632 203.243 19.632C203.883 19.632 204.331 19.712 204.587 19.872C204.843 20.032 204.971 20.336 204.971 20.784C204.971 21.296 204.731 22.448 204.251 24.24C203.931 25.52 203.675 26.64 203.483 27.6C203.291 28.56 203.131 29.744 203.003 31.152C204.059 28.4 205.243 26.16 206.555 24.432C207.867 22.704 209.147 21.472 210.395 20.736C211.675 20 212.843 19.632 213.899 19.632C215.979 19.632 217.019 20.672 217.019 22.752C217.019 24 216.667 26.256 215.963 29.52C215.355 32.304 215.051 34.144 215.051 35.04C215.051 36.32 215.515 36.96 216.443 36.96C217.083 36.96 217.835 36.576 218.699 35.808C219.595 35.008 220.779 33.728 222.251 31.968C222.635 31.52 223.067 31.296 223.547 31.296C223.963 31.296 224.283 31.488 224.507 31.872C224.763 32.256 224.891 32.784 224.891 33.456C224.891 34.736 224.587 35.728 223.979 36.432C222.603 38.128 221.115 39.52 219.515 40.608C217.947 41.696 216.155 42.24 214.139 42.24C212.507 42.24 211.275 41.776 210.443 40.848C209.611 39.888 209.195 38.512 209.195 36.72C209.195 35.824 209.419 34.224 209.867 31.92C210.283 29.904 210.491 28.512 210.491 27.744C210.491 27.232 210.315 26.976 209.963 26.976C209.547 26.976 208.955 27.52 208.187 28.608C207.451 29.664 206.683 31.072 205.883 32.832C205.115 34.592 204.491 36.448 204.011 38.4C203.659 39.904 203.243 40.928 202.763 41.472C202.315 41.984 201.595 42.24 200.603 42.24ZM229.935 43.296C228.271 43.296 226.991 42.912 226.095 42.144C225.231 41.376 224.799 40.512 224.799 39.552C224.799 38.72 225.103 38 225.711 37.392C226.319 36.784 227.215 36.48 228.399 36.48C228.815 36.48 229.295 36.528 229.839 36.624C230.415 36.688 230.847 36.736 231.135 36.768C231.103 35.936 230.911 35.152 230.559 34.416C230.239 33.68 229.823 32.976 229.311 32.304C228.799 31.6 228.319 30.992 227.871 30.48C226.879 32.368 225.887 33.936 224.895 35.184C223.935 36.432 222.879 37.616 221.727 38.736C221.151 39.312 220.543 39.6 219.903 39.6C219.391 39.6 218.975 39.424 218.655 39.072C218.335 38.688 218.175 38.224 218.175 37.68C218.175 37.04 218.399 36.448 218.847 35.904L219.471 35.136C221.231 32.96 222.559 31.168 223.455 29.76C224.031 28.832 224.607 27.728 225.183 26.448C225.791 25.168 226.575 23.424 227.535 21.216C228.143 19.808 229.407 19.104 231.327 19.104C232.223 19.104 232.847 19.184 233.199 19.344C233.551 19.504 233.727 19.76 233.727 20.112C233.727 20.304 233.663 20.608 233.535 21.024C233.407 21.44 233.231 21.856 233.007 22.272C232.431 23.424 232.143 24.4 232.143 25.2C232.143 25.68 232.303 26.208 232.623 26.784C232.975 27.36 233.503 28.08 234.207 28.944C235.231 30.288 235.999 31.44 236.511 32.4C237.055 33.328 237.327 34.352 237.327 35.472C237.327 36.816 237.007 38.096 236.367 39.312C235.759 40.496 234.895 41.456 233.775 42.192C232.655 42.928 231.375 43.296 229.935 43.296Z" fill="#000000"/>
</svg>
